<mxfile host="65bd71144e">
    <diagram id="pkV_Xa5n8eSFVHvvwM-V" name="PÃ¡gina-1">
        <mxGraphModel dx="738" dy="341" grid="1" gridSize="10" guides="1" tooltips="1" connect="1" arrows="1" fold="1" page="1" pageScale="1" pageWidth="827" pageHeight="1169" math="0" shadow="0">
            <root>
                <mxCell id="0"/>
                <mxCell id="1" parent="0"/>
                <mxCell id="5" value="" style="edgeStyle=none;html=1;" parent="1" source="2" target="4" edge="1">
                    <mxGeometry relative="1" as="geometry"/>
                </mxCell>
                <mxCell id="2" value="inicio" style="ellipse;whiteSpace=wrap;html=1;fillColor=#33FF33;" parent="1" vertex="1">
                    <mxGeometry x="354" y="10" width="120" height="80" as="geometry"/>
                </mxCell>
                <mxCell id="8" value="" style="edgeStyle=none;html=1;" parent="1" source="4" edge="1">
                    <mxGeometry relative="1" as="geometry">
                        <mxPoint x="414" y="260" as="targetPoint"/>
                    </mxGeometry>
                </mxCell>
                <mxCell id="4" value="cod=0" style="shape=parallelogram;perimeter=parallelogramPerimeter;whiteSpace=wrap;html=1;fixedSize=1;fillColor=#FF99CC;" parent="1" vertex="1">
                    <mxGeometry x="346" y="140" width="136" height="60" as="geometry"/>
                </mxCell>
                <mxCell id="10" style="edgeStyle=none;html=1;" parent="1" edge="1">
                    <mxGeometry relative="1" as="geometry">
                        <mxPoint x="560" y="420" as="targetPoint"/>
                        <Array as="points">
                            <mxPoint x="520" y="280"/>
                            <mxPoint x="540" y="280"/>
                            <mxPoint x="560" y="280"/>
                        </Array>
                        <mxPoint x="474" y="280" as="sourcePoint"/>
                    </mxGeometry>
                </mxCell>
                <mxCell id="11" style="edgeStyle=none;html=1;" parent="1" edge="1">
                    <mxGeometry relative="1" as="geometry">
                        <mxPoint x="260.15" y="423.02" as="targetPoint"/>
                        <Array as="points">
                            <mxPoint x="260" y="280"/>
                        </Array>
                        <mxPoint x="363.9990566037735" y="280.0011320754717" as="sourcePoint"/>
                    </mxGeometry>
                </mxCell>
                <mxCell id="12" value="cogido es!=a0" style="rounded=0;whiteSpace=wrap;html=1;fillColor=#6600CC;" vertex="1" parent="1">
                    <mxGeometry x="354" y="260" width="120" height="60" as="geometry"/>
                </mxCell>
                <mxCell id="19" value="" style="edgeStyle=none;html=1;" edge="1" parent="1" target="18">
                    <mxGeometry relative="1" as="geometry">
                        <mxPoint x="570" y="476.25" as="sourcePoint"/>
                        <Array as="points">
                            <mxPoint x="560" y="480"/>
                        </Array>
                    </mxGeometry>
                </mxCell>
                <mxCell id="15" value="verdadero" style="text;html=1;align=center;verticalAlign=middle;resizable=0;points=[];autosize=1;strokeColor=none;fillColor=#33FF33;" vertex="1" parent="1">
                    <mxGeometry x="475" y="260" width="70" height="20" as="geometry"/>
                </mxCell>
                <mxCell id="16" value="falso" style="text;html=1;align=center;verticalAlign=middle;resizable=0;points=[];autosize=1;strokeColor=none;fillColor=#FF0000;" vertex="1" parent="1">
                    <mxGeometry x="290" y="260" width="40" height="20" as="geometry"/>
                </mxCell>
                <mxCell id="21" value="" style="edgeStyle=none;html=1;entryX=0.5;entryY=0;entryDx=0;entryDy=0;" edge="1" parent="1" source="18" target="20">
                    <mxGeometry relative="1" as="geometry">
                        <Array as="points">
                            <mxPoint x="710" y="640"/>
                        </Array>
                    </mxGeometry>
                </mxCell>
                <mxCell id="23" value="" style="edgeStyle=none;html=1;" edge="1" parent="1" source="18" target="22">
                    <mxGeometry relative="1" as="geometry">
                        <Array as="points">
                            <mxPoint x="410" y="640"/>
                            <mxPoint x="410" y="710"/>
                        </Array>
                    </mxGeometry>
                </mxCell>
                <mxCell id="18" value="cod!=0" style="rhombus;whiteSpace=wrap;html=1;fillColor=#FF9933;" vertex="1" parent="1">
                    <mxGeometry x="505" y="585" width="110" height="110" as="geometry"/>
                </mxCell>
                <mxCell id="41" style="edgeStyle=none;html=1;" edge="1" parent="1" source="20">
                    <mxGeometry relative="1" as="geometry">
                        <mxPoint x="710" y="1573.3333333333333" as="targetPoint"/>
                    </mxGeometry>
                </mxCell>
                <mxCell id="20" value="reproados" style="shape=document;whiteSpace=wrap;html=1;boundedLbl=1;fillColor=#0000CC;" vertex="1" parent="1">
                    <mxGeometry x="650" y="720" width="120" height="80" as="geometry"/>
                </mxCell>
                <mxCell id="29" value="" style="edgeStyle=none;html=1;" edge="1" parent="1" source="22" target="28">
                    <mxGeometry relative="1" as="geometry"/>
                </mxCell>
                <mxCell id="22" value="nota final(nota1,nota2,nota3,nota4,nota5)/5" style="whiteSpace=wrap;html=1;fillColor=#6600CC;" vertex="1" parent="1">
                    <mxGeometry x="314" y="730" width="206" height="60" as="geometry"/>
                </mxCell>
                <mxCell id="26" value="falso" style="text;html=1;align=center;verticalAlign=middle;resizable=0;points=[];autosize=1;strokeColor=none;fillColor=#FF0000;" vertex="1" parent="1">
                    <mxGeometry x="630" y="620" width="40" height="20" as="geometry"/>
                </mxCell>
                <mxCell id="27" value="verdadero" style="text;html=1;align=center;verticalAlign=middle;resizable=0;points=[];autosize=1;strokeColor=none;fillColor=#66FF66;" vertex="1" parent="1">
                    <mxGeometry x="435" y="620" width="70" height="20" as="geometry"/>
                </mxCell>
                <mxCell id="31" value="" style="edgeStyle=none;html=1;" edge="1" parent="1" source="28" target="30">
                    <mxGeometry relative="1" as="geometry"/>
                </mxCell>
                <mxCell id="32" value="verdadero" style="edgeLabel;html=1;align=center;verticalAlign=middle;resizable=0;points=[];" vertex="1" connectable="0" parent="31">
                    <mxGeometry x="-0.2074" y="3" relative="1" as="geometry">
                        <mxPoint as="offset"/>
                    </mxGeometry>
                </mxCell>
                <mxCell id="28" value="notafinal&amp;lt;3" style="rhombus;whiteSpace=wrap;html=1;fillColor=#FF8000;" vertex="1" parent="1">
                    <mxGeometry x="377" y="860" width="80" height="80" as="geometry"/>
                </mxCell>
                <mxCell id="34" value="" style="edgeStyle=none;html=1;" edge="1" parent="1" source="30" target="33">
                    <mxGeometry relative="1" as="geometry"/>
                </mxCell>
                <mxCell id="30" value="reprobados=reprobados +1" style="whiteSpace=wrap;html=1;fillColor=#7F00FF;" vertex="1" parent="1">
                    <mxGeometry x="354" y="1030" width="133" height="60" as="geometry"/>
                </mxCell>
                <mxCell id="36" value="" style="edgeStyle=none;html=1;" edge="1" parent="1" source="33" target="35">
                    <mxGeometry relative="1" as="geometry"/>
                </mxCell>
                <mxCell id="33" value="cod" style="shape=parallelogram;perimeter=parallelogramPerimeter;whiteSpace=wrap;html=1;fixedSize=1;fillColor=#FF99FF;" vertex="1" parent="1">
                    <mxGeometry x="362" y="1160" width="120" height="60" as="geometry"/>
                </mxCell>
                <mxCell id="37" style="edgeStyle=none;html=1;" edge="1" parent="1" source="35">
                    <mxGeometry relative="1" as="geometry">
                        <mxPoint x="310" y="1410" as="targetPoint"/>
                        <Array as="points">
                            <mxPoint x="310" y="1335"/>
                        </Array>
                    </mxGeometry>
                </mxCell>
                <mxCell id="39" value="verdadero" style="edgeLabel;html=1;align=center;verticalAlign=middle;resizable=0;points=[];" vertex="1" connectable="0" parent="37">
                    <mxGeometry x="-0.3357" y="-2" relative="1" as="geometry">
                        <mxPoint as="offset"/>
                    </mxGeometry>
                </mxCell>
                <mxCell id="35" value="cod!=0" style="rhombus;whiteSpace=wrap;html=1;fillColor=#FF8000;" vertex="1" parent="1">
                    <mxGeometry x="376.5" y="1290" width="88" height="90" as="geometry"/>
                </mxCell>
                <mxCell id="40" style="edgeStyle=none;html=1;" edge="1" parent="1" source="38">
                    <mxGeometry relative="1" as="geometry">
                        <mxPoint x="550" y="560" as="targetPoint"/>
                        <Array as="points">
                            <mxPoint x="310" y="1550"/>
                            <mxPoint x="200" y="1550"/>
                            <mxPoint x="200" y="1410"/>
                            <mxPoint x="200" y="1250"/>
                            <mxPoint x="200" y="1080"/>
                            <mxPoint x="200" y="940"/>
                            <mxPoint x="200" y="860"/>
                            <mxPoint x="200" y="720"/>
                            <mxPoint x="200" y="640"/>
                            <mxPoint x="200" y="560"/>
                            <mxPoint x="240" y="560"/>
                        </Array>
                    </mxGeometry>
                </mxCell>
                <mxCell id="38" value="nota1,nota2,nota3,nota4,nota5" style="shape=parallelogram;perimeter=parallelogramPerimeter;whiteSpace=wrap;html=1;fixedSize=1;fillColor=#FF99CC;" vertex="1" parent="1">
                    <mxGeometry x="215" y="1410" width="190" height="70" as="geometry"/>
                </mxCell>
                <mxCell id="44" style="edgeStyle=none;html=1;" edge="1" parent="1">
                    <mxGeometry relative="1" as="geometry">
                        <mxPoint x="710" y="1520" as="targetPoint"/>
                        <mxPoint x="640" y="470" as="sourcePoint"/>
                        <Array as="points">
                            <mxPoint x="800" y="470"/>
                            <mxPoint x="800" y="700"/>
                            <mxPoint x="800" y="1160"/>
                            <mxPoint x="800" y="1520"/>
                        </Array>
                    </mxGeometry>
                </mxCell>
                <mxCell id="42" value="fin de los datos de entrada" style="shape=document;whiteSpace=wrap;html=1;boundedLbl=1;fillColor=#0000CC;" vertex="1" parent="1">
                    <mxGeometry x="510" y="420" width="120" height="80" as="geometry"/>
                </mxCell>
                <mxCell id="43" value="nota1,nota2,nota3,nota,4 nota5" style="shape=document;whiteSpace=wrap;html=1;boundedLbl=1;fillColor=#0000CC;" vertex="1" parent="1">
                    <mxGeometry x="210" y="420" width="140" height="80" as="geometry"/>
                </mxCell>
                <mxCell id="46" value="fin" style="ellipse;whiteSpace=wrap;html=1;fillColor=#FF3333;" vertex="1" parent="1">
                    <mxGeometry x="650" y="1580" width="120" height="80" as="geometry"/>
                </mxCell>
            </root>
        </mxGraphModel>
    </diagram>
</mxfile>